<svg xmlns="http://www.w3.org/2000/svg" height="223" width="745" style=""><rect id="backgroundrect" width="100%" height="100%" x="0" y="0" fill="none" stroke="none"/><g class="currentLayer" style=""><title>Layer 1</title><path d="M177.707,98.987 c-35.992,-21.375 -95.36,-23.34 -129.719,-12.912 c-5.519,1.6740000000000002 -11.353,-1.44 -13.024,-6.958 c-1.6720000000000002,-5.521 1.439,-11.352 6.96,-13.029 c39.443,-11.972 105.008,-9.66 146.443,14.936 c4.964,2.947 6.59,9.356 3.649,14.31 c-2.944,4.963 -9.359,6.6 -14.31,3.653 m-1.178,31.658 c-2.525,4.098 -7.883,5.383 -11.975,2.867 c-30.005,-18.444 -75.762,-23.788 -111.262,-13.012 c-4.603,1.3900000000000001 -9.466,-1.204 -10.864,-5.8 a8.717,8.717 0 0 1 5.805,-10.856 c40.553,-12.307 90.968,-6.347 125.432,14.833 c4.092,2.52 5.38,7.88 2.864,11.968 m-13.663,30.404 a6.954,6.954 0 0 1 -9.569,2.316 c-26.22,-16.025 -59.223,-19.644 -98.09,-10.766 a6.955,6.955 0 0 1 -8.331,-5.232 a6.95,6.95 0 0 1 5.233,-8.334 c42.533,-9.722 79.017,-5.538 108.448,12.446 a6.96,6.96 0 0 1 2.31,9.57 M111.656,0 C49.992,0 0,49.99 0,111.656 c0,61.672 49.992,111.66 111.657,111.66 c61.668,0 111.659,-49.988 111.659,-111.66 C223.316,49.991 173.326,0 111.657,0 m192.125,103.08 c-19.279,-4.598 -22.71,-7.825 -22.71,-14.605 c0,-6.405 6.03,-10.714 14.998,-10.714 c8.693,0 17.312,3.273 26.35,10.012 c0.274,0.20400000000000001 0.6160000000000001,0.28500000000000003 0.9540000000000001,0.232 a1.24,1.24 0 0 0 0.8330000000000001,-0.515 l9.413,-13.27 c0.38700000000000007,-0.546 0.28200000000000003,-1.3 -0.24000000000000002,-1.717 c-10.756,-8.63 -22.868,-12.826 -37.025,-12.826 c-20.816,0 -35.356,12.49 -35.356,30.365 c0,19.167 12.543,25.952 34.217,31.192 c18.448,4.25 21.562,7.808 21.562,14.173 c0,7.052 -6.295,11.436 -16.427,11.436 c-11.253,0 -20.432,-3.79 -30.7,-12.682 a1.3290000000000002,1.3290000000000002 0 0 0 -0.927,-0.30200000000000005 c-0.3400000000000001,0.028000000000000004 -0.6500000000000001,0.18600000000000003 -0.8660000000000001,0.44600000000000006 l-10.555,12.561 c-0.44300000000000006,0.521 -0.38700000000000007,1.3 0.125,1.75 c11.947,10.666 26.64,16.3 42.495,16.3 c22.432,0 36.925,-12.257 36.925,-31.226 c0,-16.032 -9.577,-24.899 -33.066,-30.61 m100.098,21.486 c0,13.537 -8.34,22.984 -20.28,22.984 c-11.803,0 -20.707,-9.876 -20.707,-22.984 c0,-13.107 8.904,-22.984 20.708,-22.984 c11.748,0 20.279,9.664 20.279,22.984 m-16.283,-40.5 c-9.723,0 -17.697,3.83 -24.273,11.676 V86.91 c0,-0.6970000000000002 -0.5660000000000001,-1.2650000000000001 -1.263,-1.2650000000000001 H344.8 c-0.6980000000000002,0 -1.262,0.5680000000000001 -1.262,1.2650000000000001 v98.136 c0,0.6970000000000002 0.5640000000000001,1.2650000000000001 1.262,1.2650000000000001 h17.26 c0.6980000000000002,0 1.264,-0.5680000000000001 1.264,-1.2650000000000001 v-30.977 c6.577,7.382 14.553,10.988 24.273,10.988 c18.065,0 36.353,-13.907 36.353,-40.491 c0,-26.59 -18.288,-40.5 -36.353,-40.5 m83.231,63.625 c-12.375,0 -21.704,-9.942 -21.704,-23.125 c0,-13.239 9.006,-22.845 21.418,-22.845 c12.454,0 21.847,9.942 21.847,23.134 c0,13.236 -9.068,22.836 -21.561,22.836 m0,-63.625 c-23.266,0 -41.492,17.915 -41.492,40.79 c0,22.625 18.101,40.351 41.206,40.351 c23.348,0 41.631,-17.854 41.631,-40.641 c0,-22.71 -18.157,-40.5 -41.345,-40.5 m91.027,1.5790000000000002 H542.86 V66.223 c0,-0.6970000000000002 -0.562,-1.2650000000000001 -1.26,-1.2650000000000001 h-17.26 c-0.6980000000000002,0 -1.266,0.5680000000000001 -1.266,1.2650000000000001 v19.422 h-8.3 c-0.6950000000000002,0 -1.258,0.5680000000000001 -1.258,1.2650000000000001 v14.835 c0,0.6970000000000002 0.5630000000000001,1.2650000000000001 1.258,1.2650000000000001 h8.3 v38.388 c0,15.513 7.721,23.38 22.949,23.38 c6.192,0 11.33,-1.279 16.172,-4.024 c0.39200000000000007,-0.22000000000000003 0.6370000000000001,-0.6440000000000001 0.6370000000000001,-1.095 v-14.128 a1.264,1.264 0 0 0 -1.8290000000000002,-1.133 c-3.325,1.673 -6.54,2.4450000000000003 -10.133,2.4450000000000003 c-5.538,0 -8.01,-2.5140000000000002 -8.01,-8.15 V103.01 h18.996 c0.6980000000000002,0 1.259,-0.5680000000000001 1.259,-1.2650000000000001 V86.91 c0,-0.6970000000000002 -0.561,-1.2650000000000001 -1.259,-1.2650000000000001 m66.182,0.07500000000000001 v-2.3850000000000002 c0,-7.018 2.6900000000000004,-10.147 8.725,-10.147 c3.6,0 6.49,0.7150000000000001 9.727,1.795 a1.262,1.262 0 0 0 1.6600000000000001,-1.202 V59.233 a1.26,1.26 0 0 0 -0.8920000000000001,-1.21 c-3.42,-1.018 -7.796,-2.063 -14.348,-2.063 c-15.945,0 -24.372,8.98 -24.372,25.956 v3.653 h-8.292 a1.27,1.27 0 0 0 -1.268,1.264 v14.912 c0,0.6960000000000002 0.5700000000000001,1.266 1.268,1.266 h8.292 v59.212 c0,0.6970000000000002 0.5630000000000001,1.2650000000000001 1.259,1.2650000000000001 h17.261 c0.6970000000000002,0 1.2650000000000001,-0.5680000000000001 1.2650000000000001,-1.2650000000000001 V103.01 h16.118 l24.69,59.196 c-2.8040000000000003,6.22 -5.5600000000000005,7.457 -9.322,7.457 c-3.042,0 -6.244,-0.908 -9.519,-2.6990000000000003 a1.29,1.29 0 0 0 -1.005,-0.09400000000000003 c-0.33000000000000007,0.11600000000000002 -0.6070000000000001,0.36100000000000004 -0.7470000000000001,0.6810000000000002 l-5.85,12.836 a1.255,1.255 0 0 0 0.542,1.633 c6.108,3.308 11.623,4.72 18.436,4.72 c12.747,0 19.792,-5.937 26.004,-21.91 l29.948,-77.388 a1.264,1.264 0 0 0 -1.172,-1.723 h-17.97 a1.27,1.27 0 0 0 -1.197,0.8480000000000001 L678.87,139.15 l-20.164,-52.618 a1.259,1.259 0 0 0 -1.179,-0.8130000000000001 zm-38.368,-0.07500000000000001 h-17.263 c-0.6960000000000002,0 -1.264,0.5680000000000001 -1.264,1.2650000000000001 v75.312 c0,0.6970000000000002 0.5680000000000001,1.2650000000000001 1.264,1.2650000000000001 h17.263 c0.6960000000000002,0 1.2650000000000001,-0.5680000000000001 1.2650000000000001,-1.2650000000000001 V86.91 c0,-0.6970000000000002 -0.5700000000000001,-1.2650000000000001 -1.2650000000000001,-1.2650000000000001 m-8.543,-34.292 c-6.839,0 -12.388,5.536 -12.388,12.374 c0,6.843 5.549,12.386 12.388,12.386 c6.836,0 12.38,-5.543 12.38,-12.386 c0,-6.838 -5.5440000000000005,-12.374 -12.38,-12.374 m151.936,41.783 H729.9 v4.033 h3.1630000000000003 c1.578,0 2.52,-0.772 2.52,-2.017 c0,-1.3130000000000002 -0.9420000000000001,-2.016 -2.52,-2.016 m2.049,5.753 l3.4370000000000003,4.811 h-2.8970000000000002 l-3.093,-4.412 h-2.66 v4.412 h-2.424 V90.95 h5.6850000000000005 c2.963,0 4.912,1.5150000000000001 4.912,4.066 c0,2.09 -1.208,3.368 -2.96,3.873 m-2.693,-12.184 c-6.222,0 -10.931000000000001,4.947 -10.931000000000001,11.004 c0,6.054 4.675,10.935 10.868,10.935 c6.22,0 10.935,-4.944 10.935,-11.004 c0,-6.055 -4.68,-10.935 -10.872,-10.935 m-0.06300000000000001,23.154 c-6.832,0 -12.148,-5.487 -12.148,-12.15 c0,-6.662 5.385,-12.212 12.21,-12.212 c6.833,0 12.149000000000001,5.486 12.149000000000001,12.143 c0,6.664 -5.382,12.219 -12.211,12.219 " fill="#fff" id="svg_1" class=""/></g></svg>